<svg xmlns="http://www.w3.org/2000/svg" viewBox="0 0 1733.87 600"><defs><style>.cls-1{fill:#fff;}.cls-2{fill:#e6cf37;}</style></defs><title>logo</title><g id="Calque_3" data-name="Calque 3"><path class="cls-1" d="M812.59,0V135h-6.84L718.13,38.47V135H700V0h6.85l87.62,97.69V0Z"/><path class="cls-1" d="M938.19,32.23q15.51,0,25.79,6.44A40.33,40.33,0,0,1,979.39,56.2a58.73,58.73,0,0,1,5.13,25V91H907.18A37.47,37.47,0,0,0,913,106.55a33.77,33.77,0,0,0,12.08,11.18,34.78,34.78,0,0,0,17.12,4.13,39.59,39.59,0,0,0,20.35-5.54,73.87,73.87,0,0,0,15.91-12.19l-.2,17.93a38.87,38.87,0,0,1-8.36,7.15,56,56,0,0,1-12.69,6.25,45.08,45.08,0,0,1-15,2.51A51.1,51.1,0,0,1,915,130.72,52.61,52.61,0,0,1,889.65,85.2a56.51,56.51,0,0,1,6.25-26.38,50.42,50.42,0,0,1,17.22-19.34A44.4,44.4,0,0,1,938.19,32.23Zm0,16.11q-12.48,0-20.54,8.36a37.47,37.47,0,0,0-10.07,20.24h60.63q-1-9.85-5.54-16.11a29.31,29.31,0,0,0-11-9.37A30.63,30.63,0,0,0,938.19,48.34Z"/><path class="cls-1" d="M1205.39,34.24,1170.15,135h-10.28l-27.59-71.1-27.6,71.1h-10.27L1059.16,34.24h19.74l22.36,70.7,26.39-70.7h9.26l26.39,70.7,22.35-70.7Z"/><path class="cls-1" d="M744.72,227q11.88,0,19.63,3.43a94.68,94.68,0,0,1,13.6,7.25v18.73a75.83,75.83,0,0,0-13.7-7.95,41.08,41.08,0,0,0-30.11-1.62,26,26,0,0,0-11,6.75,16.51,16.51,0,0,0-4.43,11.89q0,8.06,5.84,12.28a85.4,85.4,0,0,0,14.1,8.06l18.53,8.46q13.9,6.24,20.95,13.9t7.05,20.34a31,31,0,0,1-6.44,19.44,44.45,44.45,0,0,1-16.92,13.19,54.22,54.22,0,0,1-23,4.84,56.59,56.59,0,0,1-21.55-4,89,89,0,0,1-17.12-9.07V334.14a101.39,101.39,0,0,0,18,9.77,58.31,58.31,0,0,0,23.06,4.33,31.53,31.53,0,0,0,17.73-5,15.77,15.77,0,0,0,7.65-13.89,12.82,12.82,0,0,0-3.12-8.66A30.14,30.14,0,0,0,756,314.4a76.45,76.45,0,0,0-8.66-4.43L725,299.9q-14.51-6.45-19.74-15.11A37.68,37.68,0,0,1,700,264.85a32.24,32.24,0,0,1,6.14-19.23A43.16,43.16,0,0,1,722.56,232,49.75,49.75,0,0,1,744.72,227Z"/><path class="cls-1" d="M948.27,261.23a47.48,47.48,0,0,1,19.13,3.52q8.05,3.53,11.08,6.35v16.71a63.21,63.21,0,0,0-12.89-7.35,43.68,43.68,0,0,0-17.32-3.12,34.06,34.06,0,0,0-18.74,5.14A34.6,34.6,0,0,0,917.15,296a39,39,0,0,0-4.33,18.23,38.57,38.57,0,0,0,4.33,18,34.6,34.6,0,0,0,12.38,13.49,34.06,34.06,0,0,0,18.74,5.14,43.68,43.68,0,0,0,17.32-3.12,62.77,62.77,0,0,0,12.89-7.36V357.1q-3,3-11.08,6.45A48.76,48.76,0,0,1,948.27,367a51.13,51.13,0,0,1-27.2-7.25,52.61,52.61,0,0,1-25.38-45.52,53.24,53.24,0,0,1,6.75-26.39,52,52,0,0,1,18.63-19.33A51.13,51.13,0,0,1,948.27,261.23Z"/><path class="cls-1" d="M1138.32,261.23a39,39,0,0,1,18.73,4.53,33.21,33.21,0,0,1,13.5,13.7q5,9.17,5,23.06V364h-16.51l-.2-59.82q0-13.1-5.74-19.94t-17.63-6.85q-8.05,0-16,5.94a71.5,71.5,0,0,0-14,13.8V364H1089v-145h16.52v60.22a56.06,56.06,0,0,1,8.26-8.15,49.21,49.21,0,0,1,11.38-6.95A32.12,32.12,0,0,1,1138.32,261.23Z"/><path class="cls-1" d="M1338.65,261.23a51.1,51.1,0,0,1,27.19,7.25,52,52,0,0,1,18.63,19.33,53.24,53.24,0,0,1,6.75,26.39,52.61,52.61,0,0,1-25.38,45.52,54.61,54.61,0,0,1-54.38,0,52,52,0,0,1-18.63-19.23,52.65,52.65,0,0,1-6.75-26.29,53.24,53.24,0,0,1,6.75-26.39,51.87,51.87,0,0,1,18.63-19.33A51.07,51.07,0,0,1,1338.65,261.23Zm0,16.11a34,34,0,0,0-18.73,5.14A34.63,34.63,0,0,0,1307.53,296a39,39,0,0,0-4.33,18.23,38.57,38.57,0,0,0,4.33,18,34.63,34.63,0,0,0,12.39,13.49,36.88,36.88,0,0,0,37.56,0,34.9,34.9,0,0,0,12.29-13.49,38.69,38.69,0,0,0,4.33-18,39.15,39.15,0,0,0-4.33-18.23,34.9,34.9,0,0,0-12.29-13.49A33.9,33.9,0,0,0,1338.65,277.34Z"/><path class="cls-1" d="M1554.28,261.23a51.13,51.13,0,0,1,27.2,7.25,52,52,0,0,1,18.63,19.33,53.24,53.24,0,0,1,6.75,26.39,52.61,52.61,0,0,1-25.38,45.52,54.63,54.63,0,0,1-54.39,0,52.61,52.61,0,0,1-25.38-45.52,53.24,53.24,0,0,1,6.75-26.39,52,52,0,0,1,18.63-19.33A51.1,51.1,0,0,1,1554.28,261.23Zm0,16.11a34,34,0,0,0-18.73,5.14A34.6,34.6,0,0,0,1523.17,296a39,39,0,0,0-4.34,18.23,38.58,38.58,0,0,0,4.34,18,34.6,34.6,0,0,0,12.38,13.49,36.9,36.9,0,0,0,37.57,0,34.88,34.88,0,0,0,12.28-13.49,38.58,38.58,0,0,0,4.34-18A39,39,0,0,0,1585.4,296a34.88,34.88,0,0,0-12.28-13.49A33.93,33.93,0,0,0,1554.28,277.34Z"/><path class="cls-1" d="M1733.87,218.93V364h-16.52v-145Z"/><path class="cls-1" d="M744.72,460q11.88,0,19.63,3.43a94.68,94.68,0,0,1,13.6,7.25v18.73a76.43,76.43,0,0,0-13.7-8,41.27,41.27,0,0,0-17.52-3.72,40.86,40.86,0,0,0-12.59,2.11,26,26,0,0,0-11,6.75,16.51,16.51,0,0,0-4.43,11.88q0,8.07,5.84,12.29a85.4,85.4,0,0,0,14.1,8.06l18.53,8.46q13.9,6.24,20.95,13.89t7.05,20.35A31,31,0,0,1,778.76,581a44.45,44.45,0,0,1-16.92,13.19,54.21,54.21,0,0,1-23,4.83,56.43,56.43,0,0,1-21.55-4,88.46,88.46,0,0,1-17.12-9.06V567.17a102,102,0,0,0,18,9.77,58.31,58.31,0,0,0,23.06,4.33,31.53,31.53,0,0,0,17.73-5,15.78,15.78,0,0,0,7.65-13.9,12.85,12.85,0,0,0-3.12-8.66,30.27,30.27,0,0,0-7.55-6.24,77.41,77.41,0,0,0-8.67-4.43L725,532.93q-14.51-6.45-19.74-15.11A37.68,37.68,0,0,1,700,497.88a32.25,32.25,0,0,1,6.14-19.24,43.23,43.23,0,0,1,16.42-13.59A49.62,49.62,0,0,1,744.72,460Z"/><path class="cls-1" d="M933.16,467.26v29h29.41v15.51H933.16v59q0,6.26,3.22,9.87t9.87,3.63a28.83,28.83,0,0,0,10.07-1.51,43.82,43.82,0,0,0,7-3.32V593a36.25,36.25,0,0,1-8.56,5.14q-4.53,1.9-12.18,1.91-12.9,0-19.44-7.75t-6.55-20.65V511.78H897.31v-4.84a38.54,38.54,0,0,0,16.51-14.6,110.7,110.7,0,0,0,11.69-25.08Z"/><path class="cls-1" d="M1160.78,496.27v59.62q0,13.29-5.64,23a38.83,38.83,0,0,1-15.31,14.91,47.84,47.84,0,0,1-43.5,0A38.77,38.77,0,0,1,1081,578.85q-5.64-9.66-5.64-23V496.27h17.12v59.62q0,13.1,7.75,20a26.33,26.33,0,0,0,35.65,0q7.75-6.95,7.76-20V496.27Z"/><path class="cls-1" d="M1354.86,452V597h-16.51V579.86a50.06,50.06,0,0,1-14.2,14.1,35.72,35.72,0,0,1-20.45,6,44.13,44.13,0,0,1-23.56-6.55,47.42,47.42,0,0,1-17-18.22q-6.34-11.68-6.35-27,0-16.71,6.35-28.8a45.8,45.8,0,0,1,17.42-18.63,47.79,47.79,0,0,1,24.77-6.55,42,42,0,0,1,17.63,4.13,46.53,46.53,0,0,1,15.41,11.38V452Zm-46.52,58.81q-10.89,0-18.54,5.34a35.56,35.56,0,0,0-11.78,13.8,41.25,41.25,0,0,0-4.13,18.32,39.65,39.65,0,0,0,4,17.83,32.39,32.39,0,0,0,11.38,13,30.3,30.3,0,0,0,17,4.84,29.13,29.13,0,0,0,16.52-4.84,33.52,33.52,0,0,0,11.48-13.39,41.11,41.11,0,0,0,4-19.24l-.2-19.33a49.68,49.68,0,0,0-13.4-12.09A31.63,31.63,0,0,0,1308.34,510.77Z"/><path class="cls-1" d="M1508.06,496.27V597h-16.52v-85.2h-15.91V496.27Zm-10.27-48.34a13,13,0,0,1,9.77,4.13,13.51,13.51,0,0,1,0,19,13.4,13.4,0,0,1-19.54,0,13.48,13.48,0,0,1,0-19A12.94,12.94,0,0,1,1497.79,447.93Z"/><path class="cls-1" d="M1681.3,494.25a51.21,51.21,0,0,1,27.19,7.25,52.06,52.06,0,0,1,18.63,19.34,53.21,53.21,0,0,1,6.75,26.39,52.64,52.64,0,0,1-25.38,45.52,54.63,54.63,0,0,1-54.39,0,52.64,52.64,0,0,1-25.38-45.52,53.21,53.21,0,0,1,6.75-26.39,52.06,52.06,0,0,1,18.63-19.34A51.22,51.22,0,0,1,1681.3,494.25Zm0,16.12a34.14,34.14,0,0,0-18.74,5.13,34.7,34.7,0,0,0-12.38,13.5,39,39,0,0,0-4.33,18.23,38.56,38.56,0,0,0,4.33,18,34.56,34.56,0,0,0,12.38,13.5,36.9,36.9,0,0,0,37.57,0,34.83,34.83,0,0,0,12.28-13.5,38.57,38.57,0,0,0,4.34-18,39,39,0,0,0-4.34-18.23,35,35,0,0,0-12.28-13.5A34,34,0,0,0,1681.3,510.37Z"/><path class="cls-1" d="M300,0C134.32,0,0,134.32,0,300S134.32,600,300,600,600,465.68,600,300,465.68,0,300,0ZM480.2,80Q491,88.88,501.08,98.92a283.57,283.57,0,0,1,79.13,152.26l-68,39.33-15.56,9-82.27,47.62V39.58a282.87,282.87,0,0,1,52.42,30.08Q473.67,74.6,480.2,80ZM200.09,242.09l99.78-57.74,98.92,57.88v114L297.26,414.94l-97.17-56.85Zm-15.62-202q2.4-1.08,4.85-2.11,5.35-2.27,10.77-4.3a285.72,285.72,0,0,1,198.7-.42V224.12l-83.37-48.77-15.51-9.09-99.82-58.39-15.62-9.15L133.89,69.13A282.15,282.15,0,0,1,184.47,40.08ZM38,189.32A285.92,285.92,0,0,1,120.51,79.41l64,37.42L200.09,126l84.26,49.3L200.09,224l-15.62,9.05L84.91,290.7l-15.56,9L17.17,329.9a290.34,290.34,0,0,1,.1-60.68q.9-8.43,2.3-16.75A280.91,280.91,0,0,1,38,189.32Zm80.14,329.3q-9.94-8.28-19.19-17.54a283.6,283.6,0,0,1-79.5-154.43l65.45-37.88h0l15.55-9h0l84-48.65V559.92A282.37,282.37,0,0,1,131.35,529Q124.59,524,118.11,518.62Zm296.31,41.8L410.68,562q-5.9,2.49-11.89,4.72a285.72,285.72,0,0,1-198.7-.42V376.19l81.61,47.75L297.22,433l101.57,59.43,15.63,9.14,50.95,29.81A282.64,282.64,0,0,1,414.42,560.42ZM562,410.68a283.34,283.34,0,0,1-60.95,90.4,288.65,288.65,0,0,1-22.27,20.08l-64.39-37.68-15.63-9.14-86-50.32,86-49.78,15.63-9.05,97.8-56.6,15.55-9,54.82-31.73a291.08,291.08,0,0,1,0,63.83q-.93,8.4-2.36,16.72A281.16,281.16,0,0,1,562,410.68Z"/><path class="cls-2" d="M237.94,327.76h-9.66v20.41H250V339.1H237.94Zm-9.66-75.93v20.41h9.66V260.9H250v-9.07ZM362.06,339.1H350v9.07h21.75V327.76h-9.66ZM350,251.83v9.07h12.09v11.34h9.66V251.83Z"/><rect class="cls-2" x="371.6" y="37.02" width="11.29" height="111.63"/><rect class="cls-2" x="371.6" y="165.4" width="11.29" height="22.33"/><rect class="cls-2" x="217.12" y="451.01" width="11.29" height="111.63"/><rect class="cls-2" x="217.12" y="411.94" width="11.29" height="22.33"/></g></svg>